# xmcd
#
# Track frame offsets: 
#        150
#        11909
#        32558
#        45060
#        60044
#        68672
#        80957
#
# Disc length: 1307 seconds
#
# Revision: 0
# Processed by: cddbd v1.5.2PL0 Copyright (c) Steve Scherf et al.
# Submitted via: ExactAudioCopy v0.99pb4
#
DISCID=49051907
DTITLE=SG4 - She's About a Mover
DYEAR=2008
DGENRE=Blues
TTITLE0=Green Onions
TTITLE1=Don't Think Twice
TTITLE2=96 Tears
TTITLE3=Baby Can I Hold You
TTITLE4=Norwegian Wood
TTITLE5=She's About a Mover
TTITLE6=Fairytale of New York
EXTD=
EXTT0=
EXTT1=
EXTT2=
EXTT3=
EXTT4=
EXTT5=
EXTT6=
PLAYORDER=
